<svg width="21" height="21" viewBox="0 0 21 21" fill="none" xmlns="http://www.w3.org/2000/svg">
<path d="M4.2 16.3H3.99289L3.84645 16.4464L0.5 19.7929V2.1C0.5 1.21799 1.21799 0.5 2.1 0.5H18.9C19.782 0.5 20.5 1.21799 20.5 2.1V14.7C20.5 15.582 19.782 16.3 18.9 16.3H4.2ZM12.6 12.05H13.1V11.55V9.45V8.95H12.6H5.25H4.75V9.45V11.55V12.05H5.25H12.6ZM15.75 7.85H16.25V7.35V5.25V4.75H15.75H5.25H4.75V5.25V7.35V7.85H5.25H15.75Z" fill="#58706D"/>
<path d="M4.2 16.3H3.99289L3.84645 16.4464L0.5 19.7929V2.1C0.5 1.21799 1.21799 0.5 2.1 0.5H18.9C19.782 0.5 20.5 1.21799 20.5 2.1V14.7C20.5 15.582 19.782 16.3 18.9 16.3H4.2ZM12.6 12.05H13.1V11.55V9.45V8.95H12.6H5.25H4.75V9.45V11.55V12.05H5.25H12.6ZM15.75 7.85H16.25V7.35V5.25V4.75H15.75H5.25H4.75V5.25V7.35V7.85H5.25H15.75Z" stroke="#69938F"/>
<path d="M4.2 16.3H3.99289L3.84645 16.4464L0.5 19.7929V2.1C0.5 1.21799 1.21799 0.5 2.1 0.5H18.9C19.782 0.5 20.5 1.21799 20.5 2.1V14.7C20.5 15.582 19.782 16.3 18.9 16.3H4.2ZM12.6 12.05H13.1V11.55V9.45V8.95H12.6H5.25H4.75V9.45V11.55V12.05H5.25H12.6ZM15.75 7.85H16.25V7.35V5.25V4.75H15.75H5.25H4.75V5.25V7.35V7.85H5.25H15.75Z" stroke="url(#paint0_linear)"/>
<defs>
<linearGradient id="paint0_linear" x1="10.5" y1="0" x2="10.5" y2="21" gradientUnits="userSpaceOnUse">
<stop stop-color="white"/>
<stop offset="1" stop-color="white" stop-opacity="0"/>
</linearGradient>
</defs>
</svg>
