<svg width="13" height="13" viewBox="0 0 13 13" fill="none" xmlns="http://www.w3.org/2000/svg">
<path d="M12.1876 5.07705C12.1876 5.16682 12.152 5.25291 12.0885 5.31639C12.025 5.37986 11.9389 5.41552 11.8492 5.41552H0.33847C0.248702 5.41552 0.162611 5.37986 0.0991357 5.31639C0.0356602 5.25291 0 5.16682 0 5.07705C0 4.98228 0.0379087 4.88751 0.108311 4.81982L5.84606 0.143511L5.86772 0.121849C5.93347 0.0619705 6.02029 0.030622 6.10913 0.0346832C6.19797 0.0387443 6.28157 0.0778833 6.34158 0.143511L9.47717 2.70235V0.676941C9.47717 0.497405 9.54849 0.325222 9.67544 0.198271C9.80239 0.0713203 9.97457 0 10.1541 0C10.3336 0 10.5058 0.0713203 10.6328 0.198271C10.7597 0.325222 10.831 0.497405 10.831 0.676941V3.80441L12.0766 4.81982C12.147 4.88751 12.1863 4.98093 12.1849 5.07705H12.1876ZM1.35388 11.8492C1.35352 11.8933 1.36186 11.937 1.3784 11.9779C1.39494 12.0187 1.41938 12.056 1.45031 12.0874C1.48123 12.1188 1.51805 12.1438 1.55865 12.161C1.59925 12.1782 1.64284 12.1873 1.68694 12.1876H5.41688V9.47988H6.77076V12.1876H10.4966C10.5857 12.1876 10.6711 12.1523 10.7341 12.0893C10.797 12.0263 10.8324 11.9409 10.8324 11.8519V6.77076H1.35388V11.8478V11.8492Z" fill="#A4A6B3"/>
</svg>