<?xml version="1.0" encoding="iso-8859-1"?>
<!-- Generator: Adobe Illustrator 16.0.0, SVG Export Plug-In . SVG Version: 6.00 Build 0)  -->
<!DOCTYPE svg PUBLIC "-//W3C//DTD SVG 1.1//EN" "http://www.w3.org/Graphics/SVG/1.1/DTD/svg11.dtd">
<svg version="1.1" id="Capa_1" xmlns="http://www.w3.org/2000/svg" xmlns:xlink="http://www.w3.org/1999/xlink" x="0px" y="0px"
	 width="20" height="24"  viewBox="0 0 770.4 770.4" style="enable-background:new 0 0 770.4 770.4;" xml:space="preserve"
	>
<g>
	<path d="M770.4,381.95l-42.8,52l-342.4-281.6L42.8,433.95l-42.8-52l385.2-316.8L770.4,381.95z M385.3,217.25l248.4,206v192.601v59
		v30.399H136.6v-31.199v-58.2v-193.4L385.3,217.25z M405.601,434.65c-1.727,1.266-20.4,18-20.4,18s-18.699-16.801-20.4-18
		c-25.282-17.824-52.5-19-73.3-8.1c-20.5,9.898-32.8,31.698-34.3,56.8c-0.1,0.898-0.1,1.8-0.1,2.7c-0.3,19.1,7.2,36.8,18,52.5
		c4.8,7,9.9,13.6,15.2,20c7.8,9.898,94.85,91.767,94.85,91.767s87.149-81.967,94.95-91.767c5.3-6.4,10.398-13.102,15.198-20
		c10.802-15.802,18.302-33.4,18-52.5c0-0.9,0-1.802-0.1-2.7c-1.5-25.102-13.8-47-34.3-56.8
		C458.101,415.65,430.544,416.354,405.601,434.65z"/>
</g>
<g>
</g>
<g>
</g>
<g>
</g>
<g>
</g>
<g>
</g>
<g>
</g>
<g>
</g>
<g>
</g>
<g>
</g>
<g>
</g>
<g>
</g>
<g>
</g>
<g>
</g>
<g>
</g>
<g>
</g>
</svg>
