<svg width="35" height="35" viewBox="0 0 39 39" fill="none" xmlns="http://www.w3.org/2000/svg">
<path d="M25.5938 19.5C25.5938 21.1162 24.9517 22.6661 23.8089 23.8089C22.6661 24.9517 21.1162 25.5938 19.5 25.5938C17.8838 25.5938 16.3339 24.9517 15.1911 23.8089C14.0483 22.6661 13.4062 21.1162 13.4062 19.5C13.4062 19.1527 13.4428 18.8134 13.5058 18.4844H11.375V26.6033C11.375 27.168 11.832 27.625 12.3967 27.625H26.6053C26.8759 27.6245 27.1353 27.5166 27.3265 27.325C27.5176 27.1335 27.625 26.8739 27.625 26.6033V18.4844H25.4942C25.5572 18.8134 25.5938 19.1527 25.5938 19.5ZM19.5 23.5625C20.0336 23.5624 20.562 23.4571 21.055 23.2528C21.5479 23.0485 21.9958 22.749 22.373 22.3716C22.7503 21.9942 23.0495 21.5461 23.2536 21.0531C23.4577 20.56 23.5626 20.0316 23.5625 19.498C23.5624 18.9643 23.4571 18.436 23.2528 17.943C23.0485 17.45 22.749 17.0022 22.3716 16.6249C21.9942 16.2477 21.5461 15.9485 21.0531 15.7444C20.56 15.5403 20.0316 15.4353 19.498 15.4355C18.4203 15.4357 17.3868 15.8641 16.6249 16.6264C15.8631 17.3886 15.4352 18.4223 15.4355 19.5C15.4357 20.5777 15.8641 21.6112 16.6264 22.373C17.3886 23.1349 18.4223 23.5628 19.5 23.5625ZM24.375 15.2344H26.8105C26.9723 15.2344 27.1275 15.1702 27.2421 15.056C27.3567 14.9418 27.4213 14.7868 27.4219 14.625V12.1895C27.4219 12.0274 27.3575 11.8719 27.2428 11.7572C27.1281 11.6425 26.9726 11.5781 26.8105 11.5781H24.375C24.2128 11.5781 24.0573 11.6425 23.9427 11.7572C23.828 11.8719 23.7636 12.0274 23.7636 12.1895V14.625C23.7656 14.9602 24.0398 15.2344 24.375 15.2344ZM19.5 0C14.3283 0 9.36838 2.05446 5.71142 5.71142C2.05446 9.36838 0 14.3283 0 19.5C0 24.6717 2.05446 29.6316 5.71142 33.2886C9.36838 36.9455 14.3283 39 19.5 39C22.0608 39 24.5965 38.4956 26.9623 37.5157C29.3282 36.5357 31.4778 35.0993 33.2886 33.2886C35.0993 31.4778 36.5357 29.3282 37.5157 26.9623C38.4956 24.5965 39 22.0608 39 19.5C39 16.9392 38.4956 14.4035 37.5157 12.0377C36.5357 9.67182 35.0993 7.52216 33.2886 5.71142C31.4778 3.90067 29.3282 2.46432 26.9623 1.48435C24.5965 0.504382 22.0608 0 19.5 0ZM29.6562 27.3995C29.6562 28.6406 28.6406 29.6562 27.3995 29.6562H11.6005C10.3594 29.6562 9.34375 28.6406 9.34375 27.3995V11.6005C9.34375 10.3594 10.3594 9.34375 11.6005 9.34375H27.3995C28.6406 9.34375 29.6562 10.3594 29.6562 11.6005V27.3995Z" fill="white"/>
</svg>
