<svg width="16" height="24" viewBox="0 0 16 24" fill="none" xmlns="http://www.w3.org/2000/svg">
<path d="M8.00002 0C3.58889 0 0 3.58889 0 8.00002C0 9.32423 0.331078 10.6372 0.960469 11.8018L7.56253 23.7422C7.65042 23.9014 7.81791 24 8.00002 24C8.18213 24 8.34961 23.9014 8.4375 23.7422L15.042 11.7978C15.669 10.6372 16 9.32419 16 7.99997C16 3.58889 12.4111 0 8.00002 0ZM8.00002 12C5.79445 12 4.00003 10.2056 4.00003 8.00002C4.00003 5.79445 5.79445 4.00003 8.00002 4.00003C10.2056 4.00003 12 5.79445 12 8.00002C12 10.2056 10.2056 12 8.00002 12Z" fill="#739C98"/>
</svg>
