<svg width="20" height="20" viewBox="0 0 20 20" fill="none" xmlns="http://www.w3.org/2000/svg">
<path d="M19.7078 9.29387L10.7298 0.293874C10.5424 0.106076 10.288 0.000376023 10.0227 1.00132e-06C9.75737 -0.000374021 9.50275 0.104607 9.31479 0.291874L0.293788 9.29187C0.200661 9.38477 0.126775 9.49512 0.0763625 9.61661C0.0259496 9.7381 0 9.86834 0 9.99987C0 10.1314 0.0259496 10.2617 0.0763625 10.3831C0.126775 10.5046 0.200661 10.615 0.293788 10.7079L9.31479 19.7079C9.70479 20.0969 10.3408 20.0959 10.7298 19.7059L19.7078 10.7059C19.8006 10.6132 19.8741 10.5031 19.9244 10.382C19.9746 10.2609 20.0004 10.131 20.0004 9.99987C20.0004 9.86874 19.9746 9.73889 19.9244 9.61775C19.8741 9.49662 19.8006 9.38656 19.7078 9.29387ZM13.0008 13.9999H11.0008V9.99987H8.00079V11.9999L5.00079 8.99987L8.00079 5.99987V7.99987H13.0008V13.9999Z" fill="#739C98"/>
</svg>
