<svg width="18" height="18" viewBox="0 0 18 18" fill="none" xmlns="http://www.w3.org/2000/svg">
<path d="M0.327171 13.9547L4.39217 10.2587C4.58432 10.084 4.83683 9.9909 5.09637 9.99892C5.35591 10.0069 5.60217 10.1155 5.78317 10.3017L8.17617 12.7627C8.75217 12.6527 9.91017 12.2917 11.1022 11.1027C12.2942 9.90969 12.6552 8.74869 12.7622 8.17669L10.3032 5.78269C10.1168 5.60182 10.008 5.35551 10 5.0959C9.99198 4.83628 10.0853 4.58373 10.2602 4.39169L13.9552 0.327692C14.1301 0.135049 14.3733 0.0181963 14.633 0.00195179C14.8927 -0.0142928 15.1486 0.0713504 15.3462 0.240692L17.5162 2.10169C17.6891 2.27521 17.7923 2.50614 17.8062 2.75069C17.8212 3.00069 18.1072 8.92269 13.5152 13.5167C9.50917 17.5217 4.49117 17.8147 3.10917 17.8147C2.90717 17.8147 2.78317 17.8087 2.75017 17.8067C2.50566 17.793 2.27485 17.6894 2.10217 17.5157L0.24217 15.3447C0.0721588 15.1477 -0.0141144 14.8921 0.0017662 14.6324C0.0176468 14.3727 0.134428 14.1295 0.327171 13.9547Z" fill="#739C98"/>
</svg>
