<svg width="33" height="34" viewBox="0 0 33 34" fill="none" xmlns="http://www.w3.org/2000/svg">
<path d="M29.25 33.3125H3.25C1.4625 33.3125 0 31.85 0 30.0625V13.0813C0 12.025 0.4875 11.05 1.38125 10.4L16.25 0L31.1187 10.4C32.0125 10.9688 32.5 12.025 32.5 13.0813V30.0625C32.5 31.85 31.0375 33.3125 29.25 33.3125Z" fill="#78909C"/>
<path d="M8.125 0.8125H24.375V26H8.125V0.8125Z" fill="#AED581"/>
<path d="M7.31226 0V26.8125H25.1873V0H7.31226ZM23.5623 25.1875H8.93726V1.625H23.5623V25.1875Z" fill="#558B2F"/>
<path d="M24.3748 2.4375C24.3748 3.81875 24.131 4.875 22.7498 4.875C21.3685 4.875 20.3123 3.81875 20.3123 2.4375C20.3123 1.05625 21.3685 0.8125 22.7498 0.8125C24.131 0.8125 24.3748 1.05625 24.3748 2.4375Z" fill="#558B2F"/>
<path d="M9.74976 0.8125C11.131 0.8125 12.1873 1.05625 12.1873 2.4375C12.1873 3.81875 11.131 4.875 9.74976 4.875C8.36851 4.875 8.12476 3.81875 8.12476 2.4375C8.12476 1.05625 8.36851 0.8125 9.74976 0.8125Z" fill="#558B2F"/>
<path d="M16.2498 8.125C17.1472 8.125 17.8748 7.39746 17.8748 6.5C17.8748 5.60254 17.1472 4.875 16.2498 4.875C15.3523 4.875 14.6248 5.60254 14.6248 6.5C14.6248 7.39746 15.3523 8.125 16.2498 8.125Z" fill="#558B2F"/>
<path d="M16.2495 21.125C18.9419 21.125 21.1245 18.9424 21.1245 16.25C21.1245 13.5576 18.9419 11.375 16.2495 11.375C13.5571 11.375 11.3745 13.5576 11.3745 16.25C11.3745 18.9424 13.5571 21.125 16.2495 21.125Z" fill="#558B2F"/>
<path d="M29.25 33.3125H3.25C1.4625 33.3125 0 31.85 0 30.0625V13.8125L16.25 24.375L32.5 13.8125V30.0625C32.5 31.85 31.0375 33.3125 29.25 33.3125Z" fill="#CFD8DC"/>
</svg>
