<svg width="35" height="35" viewBox="0 0 39 39" fill="none" xmlns="http://www.w3.org/2000/svg">
<path d="M19.5 0C8.73147 0 0 8.73147 0 19.5C0 30.2685 8.73147 39 19.5 39C30.2685 39 39 30.2685 39 19.5C39 8.73147 30.2685 0 19.5 0ZM28.8713 14.699C28.8844 14.9036 28.8844 15.1169 28.8844 15.3258C28.8844 21.7155 24.0181 29.0759 15.1256 29.0759C12.3834 29.0759 9.84141 28.2794 7.69989 26.9083C8.09163 26.9518 8.46596 26.9692 8.86641 26.9692C11.1298 26.9692 13.2104 26.2031 14.8688 24.906C12.7446 24.8625 10.96 23.4696 10.3507 21.5545C11.095 21.6633 11.7653 21.6633 12.5314 21.4674C11.4376 21.2452 10.4546 20.6512 9.7492 19.7863C9.04381 18.9215 8.6596 17.839 8.66183 16.723V16.6621C9.30167 17.0233 10.0547 17.2453 10.8425 17.2758C10.1802 16.8344 9.63708 16.2364 9.26124 15.5348C8.8854 14.8333 8.68848 14.0498 8.68795 13.2539C8.68795 12.3529 8.92299 11.5302 9.3452 10.8164C10.5592 12.3108 12.074 13.5331 13.7913 14.4037C15.5086 15.2744 17.3899 15.7739 19.3128 15.8699C18.6295 12.5836 21.0844 9.92411 24.0355 9.92411C25.4283 9.92411 26.6819 10.5074 27.5655 11.4475C28.658 11.243 29.7027 10.8338 30.6342 10.2854C30.2729 11.404 29.5155 12.3485 28.51 12.9449C29.485 12.8404 30.4252 12.5705 31.2958 12.1919C30.6385 13.1581 29.8158 14.0156 28.8713 14.699Z" fill="white"/>
</svg>
